<svg width="70" height="44" viewBox="0 0 70 44" fill="none" xmlns="http://www.w3.org/2000/svg">
<path d="M16.32 43.84C11.44 43.84 7.54 42.46 4.62 39.7C1.74 36.9 0.3 32.7 0.3 27.1V16.9C0.3 11.42 1.74 7.26 4.62 4.42C7.54 1.58 11.44 0.159997 16.32 0.159997C21.24 0.159997 25.14 1.58 28.02 4.42C30.94 7.26 32.4 11.42 32.4 16.9V27.1C32.4 32.7 30.94 36.9 28.02 39.7C25.14 42.46 21.24 43.84 16.32 43.84ZM16.32 38.2C19.64 38.2 22.1 37.26 23.7 35.38C25.3 33.46 26.1 30.78 26.1 27.34V16.54C26.1 13.1 25.24 10.46 23.52 8.62C21.8 6.74 19.4 5.8 16.32 5.8C13.2 5.8 10.8 6.76 9.12 8.68C7.44 10.56 6.6 13.18 6.6 16.54V27.34C6.6 30.86 7.4 33.56 9 35.44C10.64 37.28 13.08 38.2 16.32 38.2ZM54.3319 43.84C51.2919 43.84 48.6119 43.26 46.2919 42.1C43.9719 40.9 42.1719 39.24 40.8919 37.12C39.6119 35 38.9719 32.54 38.9719 29.74V15.22C38.9719 11.94 39.6119 9.18 40.8919 6.94C42.2119 4.7 44.0519 3.02 46.4119 1.9C48.7719 0.739997 51.5119 0.159997 54.6319 0.159997C57.7119 0.159997 60.3719 0.699997 62.6119 1.78C64.8519 2.82 66.5719 4.32 67.7719 6.28C68.9719 8.2 69.5719 10.46 69.5719 13.06H63.2119C63.2119 10.98 62.5119 9.26 61.1119 7.9C59.7519 6.5 57.5919 5.8 54.6319 5.8C51.6319 5.8 49.3119 6.6 47.6719 8.2C46.0719 9.76 45.2719 11.94 45.2719 14.74V19.78H46.2319C46.9119 18.82 48.0119 17.9 49.5319 17.02C51.0919 16.14 53.2919 15.7 56.1319 15.7C58.6119 15.7 60.8919 16.24 62.9719 17.32C65.0519 18.4 66.7119 19.94 67.9519 21.94C69.2319 23.94 69.8719 26.36 69.8719 29.2V29.92C69.8719 32.68 69.2119 35.12 67.8919 37.24C66.5719 39.32 64.7319 40.94 62.3719 42.1C60.0519 43.26 57.3719 43.84 54.3319 43.84ZM54.3919 38.2C57.1919 38.2 59.4119 37.44 61.0519 35.92C62.7319 34.4 63.5719 32.36 63.5719 29.8V29.32C63.5719 27.6 63.1919 26.12 62.4319 24.88C61.6719 23.6 60.5919 22.6 59.1919 21.88C57.8319 21.16 56.2319 20.8 54.3919 20.8C52.5919 20.8 50.9919 21.16 49.5919 21.88C48.2319 22.6 47.1719 23.6 46.4119 24.88C45.6519 26.12 45.2719 27.6 45.2719 29.32V29.8C45.2719 32.36 46.0919 34.4 47.7319 35.92C49.4119 37.44 51.6319 38.2 54.3919 38.2Z" fill="black"/>
</svg>
