<svg width="69" height="44" viewBox="0 0 69 44" fill="none" xmlns="http://www.w3.org/2000/svg">
<path d="M16.32 43.84C11.44 43.84 7.54 42.46 4.62 39.7C1.74 36.9 0.3 32.7 0.3 27.1V16.9C0.3 11.42 1.74 7.26 4.62 4.42C7.54 1.58 11.44 0.159997 16.32 0.159997C21.24 0.159997 25.14 1.58 28.02 4.42C30.94 7.26 32.4 11.42 32.4 16.9V27.1C32.4 32.7 30.94 36.9 28.02 39.7C25.14 42.46 21.24 43.84 16.32 43.84ZM16.32 38.2C19.64 38.2 22.1 37.26 23.7 35.38C25.3 33.46 26.1 30.78 26.1 27.34V16.54C26.1 13.1 25.24 10.46 23.52 8.62C21.8 6.74 19.4 5.8 16.32 5.8C13.2 5.8 10.8 6.76 9.12 8.68C7.44 10.56 6.6 13.18 6.6 16.54V27.34C6.6 30.86 7.4 33.56 9 35.44C10.64 37.28 13.08 38.2 16.32 38.2ZM38.5519 43V38.26C38.5519 35.34 39.0519 32.94 40.0519 31.06C41.0519 29.18 42.4719 27.66 44.3119 26.5C46.1919 25.3 48.4519 24.3 51.0919 23.5L54.7519 22.36C56.3919 21.84 57.7919 21.2 58.9519 20.44C60.1519 19.68 61.0719 18.74 61.7119 17.62C62.3519 16.46 62.6719 15.12 62.6719 13.6V13.36C62.6719 11 61.8719 9.16 60.2719 7.84C58.6719 6.48 56.5719 5.8 53.9719 5.8C51.2919 5.8 49.1119 6.52 47.4319 7.96C45.7919 9.4 44.9719 11.52 44.9719 14.32V15.28H38.7319V14.38C38.7319 11.34 39.3919 8.78 40.7119 6.7C42.0319 4.58 43.8519 2.96 46.1719 1.84C48.4919 0.719997 51.0919 0.159997 53.9719 0.159997C56.8519 0.159997 59.4119 0.699997 61.6519 1.78C63.9319 2.86 65.7119 4.38 66.9919 6.34C68.3119 8.3 68.9719 10.6 68.9719 13.24V13.78C68.9719 16.5 68.4319 18.76 67.3519 20.56C66.2719 22.36 64.7719 23.84 62.8519 25C60.9719 26.16 58.7919 27.14 56.3119 27.94L52.7719 29.02C50.8919 29.58 49.3719 30.2 48.2119 30.88C47.0919 31.52 46.2519 32.3 45.6919 33.22C45.1719 34.14 44.9119 35.32 44.9119 36.76V37.36H68.6119V43H38.5519Z" fill="black"/>
</svg>
