<svg width="70" height="44" viewBox="0 0 70 44" fill="none" xmlns="http://www.w3.org/2000/svg">
<path d="M16.32 43.84C11.44 43.84 7.54 42.46 4.62 39.7C1.74 36.9 0.3 32.7 0.3 27.1V16.9C0.3 11.42 1.74 7.26 4.62 4.42C7.54 1.58 11.44 0.159997 16.32 0.159997C21.24 0.159997 25.14 1.58 28.02 4.42C30.94 7.26 32.4 11.42 32.4 16.9V27.1C32.4 32.7 30.94 36.9 28.02 39.7C25.14 42.46 21.24 43.84 16.32 43.84ZM16.32 38.2C19.64 38.2 22.1 37.26 23.7 35.38C25.3 33.46 26.1 30.78 26.1 27.34V16.54C26.1 13.1 25.24 10.46 23.52 8.62C21.8 6.74 19.4 5.8 16.32 5.8C13.2 5.8 10.8 6.76 9.12 8.68C7.44 10.56 6.6 13.18 6.6 16.54V27.34C6.6 30.86 7.4 33.56 9 35.44C10.64 37.28 13.08 38.2 16.32 38.2ZM53.9119 43.84C50.8319 43.84 48.0919 43.28 45.6919 42.16C43.2919 41.04 41.4119 39.42 40.0519 37.3C38.7319 35.18 38.0719 32.66 38.0719 29.74V28.66H44.3719V29.62C44.3719 32.26 45.2319 34.36 46.9519 35.92C48.7119 37.44 51.0319 38.2 53.9119 38.2C56.7919 38.2 59.0319 37.48 60.6319 36.04C62.2319 34.6 63.0319 32.78 63.0319 30.58V30.04C63.0319 28.48 62.6519 27.22 61.8919 26.26C61.1319 25.3 60.1119 24.6 58.8319 24.16C57.5519 23.68 56.1119 23.44 54.5119 23.44H46.8919V16.18L61.6519 7.48V6.64H39.0919V0.999997H68.4919V9.52L54.3919 17.92V18.76H56.9719C59.0919 18.76 61.0919 19.16 62.9719 19.96C64.8519 20.76 66.3719 21.98 67.5319 23.62C68.7319 25.26 69.3319 27.34 69.3319 29.86V30.58C69.3319 33.26 68.6919 35.6 67.4119 37.6C66.1319 39.56 64.3319 41.1 62.0119 42.22C59.6919 43.3 56.9919 43.84 53.9119 43.84Z" fill="black"/>
</svg>
