<svg width="70" height="44" viewBox="0 0 70 44" fill="none" xmlns="http://www.w3.org/2000/svg">
<path d="M16.32 43.84C11.44 43.84 7.54 42.46 4.62 39.7C1.74 36.9 0.3 32.7 0.3 27.1V16.9C0.3 11.42 1.74 7.26 4.62 4.42C7.54 1.58 11.44 0.159997 16.32 0.159997C21.24 0.159997 25.14 1.58 28.02 4.42C30.94 7.26 32.4 11.42 32.4 16.9V27.1C32.4 32.7 30.94 36.9 28.02 39.7C25.14 42.46 21.24 43.84 16.32 43.84ZM16.32 38.2C19.64 38.2 22.1 37.26 23.7 35.38C25.3 33.46 26.1 30.78 26.1 27.34V16.54C26.1 13.1 25.24 10.46 23.52 8.62C21.8 6.74 19.4 5.8 16.32 5.8C13.2 5.8 10.8 6.76 9.12 8.68C7.44 10.56 6.6 13.18 6.6 16.54V27.34C6.6 30.86 7.4 33.56 9 35.44C10.64 37.28 13.08 38.2 16.32 38.2ZM53.7919 43.84C50.6319 43.84 47.8919 43.26 45.5719 42.1C43.2519 40.94 41.4519 39.3 40.1719 37.18C38.9319 35.06 38.3119 32.6 38.3119 29.8V29.14H44.7319V29.74C44.7319 32.3 45.5119 34.36 47.0719 35.92C48.6719 37.44 50.8919 38.2 53.7319 38.2C56.6519 38.2 58.9119 37.4 60.5119 35.8C62.1119 34.2 62.9119 32.04 62.9119 29.32V28.78C62.9119 26.18 62.1119 24.1 60.5119 22.54C58.9519 20.98 56.9519 20.2 54.5119 20.2C53.1519 20.2 52.0119 20.42 51.0919 20.86C50.2119 21.26 49.4919 21.76 48.9319 22.36C48.4119 22.96 47.9719 23.54 47.6119 24.1H39.6319V0.999997H67.7719V6.7H45.9319V19.06H46.8919C47.2919 18.38 47.8519 17.74 48.5719 17.14C49.3319 16.5 50.3119 15.98 51.5119 15.58C52.7119 15.18 54.1519 14.98 55.8319 14.98C58.3119 14.98 60.5519 15.52 62.5519 16.6C64.5919 17.64 66.2119 19.2 67.4119 21.28C68.6119 23.32 69.2119 25.8 69.2119 28.72V29.38C69.2119 32.3 68.5919 34.84 67.3519 37C66.1119 39.16 64.3319 40.84 62.0119 42.04C59.7319 43.24 56.9919 43.84 53.7919 43.84Z" fill="black"/>
</svg>
