<svg width="73" height="44" viewBox="0 0 73 44" fill="none" xmlns="http://www.w3.org/2000/svg">
<path d="M16.32 43.84C11.44 43.84 7.54 42.46 4.62 39.7C1.74 36.9 0.3 32.7 0.3 27.1V16.9C0.3 11.42 1.74 7.26 4.62 4.42C7.54 1.58 11.44 0.159997 16.32 0.159997C21.24 0.159997 25.14 1.58 28.02 4.42C30.94 7.26 32.4 11.42 32.4 16.9V27.1C32.4 32.7 30.94 36.9 28.02 39.7C25.14 42.46 21.24 43.84 16.32 43.84ZM16.32 38.2C19.64 38.2 22.1 37.26 23.7 35.38C25.3 33.46 26.1 30.78 26.1 27.34V16.54C26.1 13.1 25.24 10.46 23.52 8.62C21.8 6.74 19.4 5.8 16.32 5.8C13.2 5.8 10.8 6.76 9.12 8.68C7.44 10.56 6.6 13.18 6.6 16.54V27.34C6.6 30.86 7.4 33.56 9 35.44C10.64 37.28 13.08 38.2 16.32 38.2ZM58.6519 43V34.42H37.4119V27.1L53.4919 0.999997H64.9519V28.84H72.0319V34.42H64.9519V43H58.6519ZM43.5319 28.84H58.6519V4.96H57.6919L43.5319 28V28.84Z" fill="black"/>
</svg>
